<svg width="25" height="25" viewBox="0 0 25 25" fill="none" xmlns="http://www.w3.org/2000/svg">
<path d="M12.5 22.8646H17.7083V20.7813H12.5C7.97918 20.7813 4.16668 16.9688 4.16668 12.4479C4.16668 7.92708 7.97918 4.11458 12.5 4.11458C17.0208 4.11458 20.8333 7.92708 20.8333 12.4479V13.9375C20.8333 14.7604 20.0938 15.5729 19.2708 15.5729C18.4479 15.5729 17.7083 14.7604 17.7083 13.9375V12.4479C17.7083 9.57292 15.375 7.23958 12.5 7.23958C9.62501 7.23958 7.29168 9.57292 7.29168 12.4479C7.29168 15.3229 9.62501 17.6563 12.5 17.6563C13.9375 17.6563 15.25 17.0729 16.1875 16.125C16.8646 17.0521 18.0313 17.6563 19.2708 17.6563C21.3229 17.6563 22.9167 15.9896 22.9167 13.9375V12.4479C22.9167 6.69792 18.25 2.03125 12.5 2.03125C6.75001 2.03125 2.08334 6.69792 2.08334 12.4479C2.08334 18.1979 6.75001 22.8646 12.5 22.8646ZM12.5 15.5729C10.7708 15.5729 9.37501 14.1771 9.37501 12.4479C9.37501 10.7188 10.7708 9.32292 12.5 9.32292C14.2292 9.32292 15.625 10.7188 15.625 12.4479C15.625 14.1771 14.2292 15.5729 12.5 15.5729Z" fill="white"/>
</svg>
