<svg width="85" height="85" viewBox="0 0 85 85" fill="none" xmlns="http://www.w3.org/2000/svg">
<path d="M46.75 7.64581C27.8587 7.64581 12.4907 22.7843 12.0317 41.6288V42.5001H1.95071L17.2252 59.0496L32.0747 42.5001H20.7187V41.6288C21.1735 27.5911 32.6527 16.3626 46.75 16.3626C61.1405 16.3626 72.8067 28.0671 72.8067 42.5001C72.8067 56.9331 61.1405 68.6376 46.75 68.6376C41.2015 68.6409 35.7984 66.8637 31.3352 63.5673L25.3597 69.9593C31.4585 74.7528 38.9929 77.3545 46.75 77.3458C65.9387 77.3458 81.4895 61.7483 81.4895 42.5001C81.4895 23.2518 65.9387 7.64581 46.75 7.64581ZM42.5 21.2501V42.5001C42.5048 43.6262 42.952 44.7054 43.7452 45.5048L57.3452 59.1048C58.548 58.3271 59.6827 57.4516 60.69 56.4358L51 46.7501V21.2501H42.5Z" fill="#3F88C5"/>
</svg>
