<svg width="79" height="79" viewBox="0 0 79 79" fill="none" xmlns="http://www.w3.org/2000/svg">
<path d="M72.4167 16.7655C69.4761 10.7307 61.0055 5.79325 51.1525 8.66797C46.4442 10.028 42.3363 12.9445 39.5 16.941C36.6636 12.9445 32.5558 10.028 27.8475 8.66797C17.9725 5.83714 9.52387 10.7307 6.58332 16.7655C2.45776 25.2141 4.16943 34.716 11.6744 45.008C17.5555 53.0616 25.9603 61.2249 38.1614 70.7049C38.547 71.0057 39.022 71.169 39.511 71.169C40 71.169 40.475 71.0057 40.8605 70.7049C53.0397 61.2469 61.4664 53.1494 67.3475 45.008C74.8305 34.716 76.5422 25.2141 72.4167 16.7655V16.7655Z" fill="#3F88C5"/>
</svg>
