<svg width="82" height="66" viewBox="0 0 82 66" fill="none" xmlns="http://www.w3.org/2000/svg">
<path d="M79.95 45.375H77.9V31.4402C77.9 29.8031 77.2466 28.2305 76.0934 27.0703L63.2937 14.1926C62.1406 13.0324 60.5775 12.375 58.9503 12.375H53.3V6.1875C53.3 2.77148 50.5453 0 47.15 0H14.35C10.9547 0 8.2 2.77148 8.2 6.1875V12.375H1.025C0.46125 12.375 0 12.8391 0 13.4062V15.4688C0 16.0359 0.46125 16.5 1.025 16.5H35.875C36.4387 16.5 36.9 16.9641 36.9 17.5312V19.5938C36.9 20.1609 36.4387 20.625 35.875 20.625H5.125C4.56125 20.625 4.1 21.0891 4.1 21.6562V23.7188C4.1 24.2859 4.56125 24.75 5.125 24.75H31.775C32.3387 24.75 32.8 25.2141 32.8 25.7812V27.8438C32.8 28.4109 32.3387 28.875 31.775 28.875H1.025C0.46125 28.875 0 29.3391 0 29.9062V31.9688C0 32.5359 0.46125 33 1.025 33H27.675C28.2387 33 28.7 33.4641 28.7 34.0312V36.0938C28.7 36.6609 28.2387 37.125 27.675 37.125H8.2V53.625C8.2 60.457 13.7094 66 20.5 66C27.2906 66 32.8 60.457 32.8 53.625H49.2C49.2 60.457 54.7094 66 61.5 66C68.2906 66 73.8 60.457 73.8 53.625H79.95C81.0775 53.625 82 52.6969 82 51.5625V47.4375C82 46.3031 81.0775 45.375 79.95 45.375ZM20.5 59.8125C17.1047 59.8125 14.35 57.041 14.35 53.625C14.35 50.209 17.1047 47.4375 20.5 47.4375C23.8953 47.4375 26.65 50.209 26.65 53.625C26.65 57.041 23.8953 59.8125 20.5 59.8125ZM61.5 59.8125C58.1047 59.8125 55.35 57.041 55.35 53.625C55.35 50.209 58.1047 47.4375 61.5 47.4375C64.8953 47.4375 67.65 50.209 67.65 53.625C67.65 57.041 64.8953 59.8125 61.5 59.8125ZM71.75 33H53.3V18.5625H58.9503L71.75 31.4402V33Z" fill="#3F88C5"/>
</svg>
