<svg width="31" height="31" viewBox="0 0 31 31" fill="none" xmlns="http://www.w3.org/2000/svg">
<path d="M28.6084 12.4727H20.8584C20.7252 12.4727 20.6162 12.5816 20.6162 12.7148V14.168C20.6162 14.3012 20.7252 14.4102 20.8584 14.4102H28.6084C28.7416 14.4102 28.8506 14.3012 28.8506 14.168V12.7148C28.8506 12.5816 28.7416 12.4727 28.6084 12.4727ZM24.5518 16.5898H20.8584C20.7252 16.5898 20.6162 16.6988 20.6162 16.832V18.2852C20.6162 18.4184 20.7252 18.5273 20.8584 18.5273H24.5518C24.685 18.5273 24.794 18.4184 24.794 18.2852V16.832C24.794 16.6988 24.685 16.5898 24.5518 16.5898ZM14.4495 9.76318H13.1387C12.951 9.76318 12.7996 9.91455 12.7996 10.1022V17.6101C12.7996 17.719 12.8511 17.8189 12.9389 17.8825L17.4466 21.1702C17.598 21.2792 17.8099 21.2489 17.9189 21.0976L18.6969 20.035V20.0319C18.8059 19.8806 18.7726 19.6687 18.6212 19.5597L14.7856 16.7866V10.1022C14.7886 9.91455 14.6342 9.76318 14.4495 9.76318V9.76318Z" fill="white"/>
<path d="M24.364 20.4012H22.6142C22.4447 20.4012 22.2842 20.489 22.1934 20.6343C21.8089 21.2428 21.3609 21.8059 20.8462 22.3206C19.9592 23.2076 18.9269 23.9039 17.7795 24.3883C16.5898 24.8908 15.3274 25.1451 14.0256 25.1451C12.7209 25.1451 11.4585 24.8908 10.2717 24.3883C9.12437 23.9039 8.09205 23.2076 7.20504 22.3206C6.31803 21.4336 5.62174 20.4012 5.13736 19.2539C4.63482 18.0672 4.38053 16.8048 4.38053 15.5C4.38053 14.1952 4.63482 12.9358 5.13736 11.7461C5.62174 10.5987 6.31803 9.56638 7.20504 8.67937C8.09205 7.79235 9.12437 7.09607 10.2717 6.61169C11.4585 6.10915 12.7239 5.85485 14.0256 5.85485C15.3304 5.85485 16.5928 6.10915 17.7795 6.61169C18.9269 7.09607 19.9592 7.79235 20.8462 8.67937C21.3609 9.19402 21.8089 9.7571 22.1934 10.3656C22.2842 10.5109 22.4447 10.5987 22.6142 10.5987H24.364C24.5729 10.5987 24.7061 10.3807 24.6123 10.1961C22.6384 6.2696 18.6363 3.71755 14.1679 3.66608C7.62584 3.58435 2.19176 8.93972 2.17965 15.4758C2.16754 22.0239 7.47447 27.3369 14.0226 27.3369C18.5485 27.3369 22.6172 24.7758 24.6123 20.8039C24.7061 20.6192 24.5699 20.4012 24.364 20.4012V20.4012Z" fill="white"/>
</svg>
