<svg width="36" height="36" viewBox="0 0 36 36" fill="none" xmlns="http://www.w3.org/2000/svg">
<path d="M23.6288 18.1599C23.6288 19.6103 23.0526 21.0013 22.027 22.0269C21.0014 23.0525 19.6104 23.6287 18.16 23.6287C16.7096 23.6287 15.3186 23.0525 14.293 22.0269C13.2674 21.0013 12.6913 19.6103 12.6913 18.1599C12.6913 17.8482 12.7241 17.5438 12.7806 17.2485H10.8683V24.5347C10.8683 25.0414 11.2785 25.4516 11.7853 25.4516H24.5366C24.7794 25.4511 25.0122 25.3543 25.1838 25.1824C25.3553 25.0105 25.4517 24.7775 25.4517 24.5347V17.2485H23.5394C23.5959 17.5438 23.6288 17.8482 23.6288 18.1599V18.1599ZM18.16 21.8057C18.6389 21.8056 19.1131 21.7112 19.5555 21.5278C19.9979 21.3444 20.3998 21.0757 20.7384 20.737C21.0769 20.3983 21.3454 19.9962 21.5286 19.5537C21.7118 19.1112 21.806 18.637 21.8058 18.1581C21.8057 17.6792 21.7113 17.205 21.5279 16.7626C21.3445 16.3202 21.0758 15.9183 20.7371 15.5797C20.3984 15.2412 19.9963 14.9727 19.5538 14.7895C19.1113 14.6063 18.6371 14.5121 18.1582 14.5123C17.191 14.5125 16.2635 14.8969 15.5798 15.581C14.8961 16.2651 14.5121 17.1927 14.5123 18.1599C14.5126 19.1271 14.897 20.0546 15.5811 20.7383C16.2652 21.422 17.1928 21.806 18.16 21.8057V21.8057ZM22.535 14.3318H24.7207C24.8659 14.3318 25.0052 14.2742 25.108 14.1717C25.2109 14.0692 25.2689 13.9301 25.2694 13.7849V11.5992C25.2694 11.4537 25.2116 11.3141 25.1087 11.2112C25.0058 11.1083 24.8662 11.0505 24.7207 11.0505H22.535C22.3895 11.0505 22.2499 11.1083 22.147 11.2112C22.0441 11.3141 21.9863 11.4537 21.9863 11.5992V13.7849C21.9881 14.0857 22.2342 14.3318 22.535 14.3318V14.3318ZM18.16 0.659912C13.5187 0.659912 9.06752 2.50366 5.78563 5.78554C2.50375 9.06743 0.660004 13.5186 0.660004 18.1599C0.660004 22.8012 2.50375 27.2524 5.78563 30.5343C9.06752 33.8162 13.5187 35.6599 18.16 35.6599C20.4581 35.6599 22.7338 35.2073 24.857 34.3278C26.9802 33.4483 28.9093 32.1593 30.5344 30.5343C32.1594 28.9093 33.4484 26.9801 34.3279 24.8569C35.2074 22.7337 35.66 20.458 35.66 18.1599C35.66 15.8618 35.2074 13.5861 34.3279 11.463C33.4484 9.33975 32.1594 7.41057 30.5344 5.78554C28.9093 4.16052 26.9802 2.87148 24.857 1.99202C22.7338 1.11256 20.4581 0.659912 18.16 0.659912V0.659912ZM27.2746 25.2492C27.2746 26.363 26.3631 27.2745 25.2493 27.2745H11.0707C9.95688 27.2745 9.04542 26.363 9.04542 25.2492V11.0706C9.04542 9.95679 9.95688 9.04533 11.0707 9.04533H25.2493C26.3631 9.04533 27.2746 9.95679 27.2746 11.0706V25.2492V25.2492Z" fill="#3F88C5"/>
</svg>
