<svg width="36" height="36" viewBox="0 0 36 36" fill="none" xmlns="http://www.w3.org/2000/svg">
<path d="M18.18 0.680664C8.51486 0.680664 0.679962 8.51556 0.679962 18.1807C0.679962 27.8458 8.51486 35.6807 18.18 35.6807C27.8451 35.6807 35.68 27.8458 35.68 18.1807C35.68 8.51556 27.8451 0.680664 18.18 0.680664ZM13.8961 25.434H10.3524V14.0299H13.8961V25.434ZM12.1024 12.6299C10.9831 12.6299 10.2594 11.8369 10.2594 10.8562C10.2594 9.8554 11.005 9.08613 12.1479 9.08613C13.2909 9.08613 13.9909 9.8554 14.0128 10.8562C14.0128 11.8369 13.2909 12.6299 12.1024 12.6299ZM26.8388 25.434H23.2951V19.114C23.2951 17.6429 22.781 16.6439 21.4995 16.6439C20.5206 16.6439 19.9391 17.3202 19.682 17.971C19.5873 18.2025 19.5636 18.5307 19.5636 18.857V25.4322H16.018V17.6666C16.018 16.2429 15.9724 15.0525 15.925 14.0281H19.0039L19.1662 15.6122H19.2373C19.7039 14.8684 20.8469 13.771 22.7591 13.771C25.0906 13.771 26.8388 15.3333 26.8388 18.6911V25.434V25.434Z" fill="#3F88C5"/>
</svg>
