<svg width="90" height="90" viewBox="0 0 90 90" fill="none" xmlns="http://www.w3.org/2000/svg">
<g clip-path="url(#clip0_4_181)">
<path d="M87.1875 50.625V39.375C87.1875 38.6291 86.8912 37.9137 86.3637 37.3863C85.8363 36.8588 85.1209 36.5625 84.375 36.5625H81.7734C80.642 36.5603 79.5375 36.2168 78.6042 35.5771C77.671 34.9374 76.9523 34.0311 76.5422 32.9766C76.3172 32.3859 76.0781 31.7953 75.8109 31.2188C75.3489 30.1812 75.2118 29.0281 75.4176 27.9111C75.6234 26.7942 76.1626 25.7657 76.9641 24.9609L78.75 23.1188C79.2738 22.5918 79.5679 21.879 79.5679 21.1359C79.5679 20.3929 79.2738 19.6801 78.75 19.1531L70.8469 11.25C70.3199 10.7262 69.6071 10.4321 68.8641 10.4321C68.121 10.4321 67.4082 10.7262 66.8813 11.25L65.0391 13.0359C64.2343 13.8374 63.2058 14.3766 62.0889 14.5824C60.9719 14.7882 59.8188 14.6511 58.7812 14.1891C58.2047 13.9219 57.6141 13.6828 57.0234 13.4578C55.9689 13.0477 55.0626 12.329 54.4229 11.3958C53.7832 10.4625 53.4397 9.35803 53.4375 8.22656V6.00469C53.4762 5.60762 53.4329 5.20682 53.3102 4.82719C53.1876 4.44756 52.9882 4.0972 52.7244 3.79786C52.4607 3.49851 52.1382 3.25658 51.7771 3.08707C51.4159 2.91757 51.0238 2.82411 50.625 2.8125H39.375C38.6291 2.8125 37.9137 3.10882 37.3863 3.63626C36.8588 4.16371 36.5625 4.87908 36.5625 5.625V8.22656C36.5603 9.35803 36.2168 10.4625 35.5771 11.3958C34.9374 12.329 34.0311 13.0477 32.9766 13.4578C32.3859 13.6828 31.7953 13.9219 31.2188 14.1891C30.1812 14.6511 29.0281 14.7882 27.9111 14.5824C26.7942 14.3766 25.7657 13.8374 24.9609 13.0359L23.1188 11.25C22.5918 10.7262 21.879 10.4321 21.1359 10.4321C20.3929 10.4321 19.6801 10.7262 19.1531 11.25L11.25 19.1531C10.7262 19.6801 10.4321 20.3929 10.4321 21.1359C10.4321 21.879 10.7262 22.5918 11.25 23.1188L13.0922 24.9609C13.8937 25.7657 14.4328 26.7942 14.6387 27.9111C14.8445 29.0281 14.7074 30.1812 14.2453 31.2188C13.9781 31.7953 13.7391 32.3859 13.5141 32.9766C13.1005 34.04 12.3732 34.9526 11.4288 35.5931C10.4844 36.2335 9.3676 36.5716 8.22656 36.5625H6.00469C5.60762 36.5238 5.20682 36.5671 4.82719 36.6898C4.44756 36.8124 4.0972 37.0118 3.79786 37.2756C3.49851 37.5393 3.25658 37.8618 3.08707 38.2229C2.91757 38.5841 2.82411 38.9762 2.8125 39.375V50.625C2.8125 51.3709 3.10882 52.0863 3.63626 52.6137C4.16371 53.1412 4.87908 53.4375 5.625 53.4375H8.22656C9.35803 53.4397 10.4625 53.7832 11.3958 54.4229C12.329 55.0626 13.0477 55.9689 13.4578 57.0234C13.6828 57.6141 13.9219 58.2047 14.1891 58.7812C14.6511 59.8188 14.7882 60.9719 14.5824 62.0889C14.3766 63.2058 13.8374 64.2343 13.0359 65.0391L11.25 66.8813C10.7262 67.4082 10.4321 68.121 10.4321 68.8641C10.4321 69.6071 10.7262 70.3199 11.25 70.8469L19.1531 78.75C19.6801 79.2738 20.3929 79.5679 21.1359 79.5679C21.879 79.5679 22.5918 79.2738 23.1188 78.75L24.9609 76.9078C25.7657 76.1063 26.7942 75.5672 27.9111 75.3613C29.0281 75.1555 30.1812 75.2926 31.2188 75.7547C31.7953 76.0219 32.3859 76.2609 32.9766 76.4859C34.04 76.8995 34.9526 77.6268 35.5931 78.5712C36.2335 79.5156 36.5716 80.6324 36.5625 81.7734V83.9953C36.5238 84.3924 36.5671 84.7932 36.6898 85.1728C36.8124 85.5524 37.0118 85.9028 37.2756 86.2021C37.5393 86.5015 37.8618 86.7434 38.2229 86.9129C38.5841 87.0824 38.9762 87.1759 39.375 87.1875H50.625C51.3709 87.1875 52.0863 86.8912 52.6137 86.3637C53.1412 85.8363 53.4375 85.1209 53.4375 84.375V81.7734C53.4397 80.642 53.7832 79.5375 54.4229 78.6042C55.0626 77.671 55.9689 76.9523 57.0234 76.5422C58.1723 76.1069 59.2945 75.6045 60.3844 75.0375C60.9119 74.7723 61.5096 74.6798 62.0926 74.7732C62.6756 74.8665 63.2145 75.1411 63.6328 75.5578L66.8813 78.75C67.4082 79.2738 68.121 79.5679 68.8641 79.5679C69.6071 79.5679 70.3199 79.2738 70.8469 78.75L78.75 70.8469C79.2738 70.3199 79.5679 69.6071 79.5679 68.8641C79.5679 68.121 79.2738 67.4082 78.75 66.8813L76.9078 65.0391C76.1063 64.2343 75.5672 63.2058 75.3613 62.0889C75.1555 60.9719 75.2926 59.8188 75.7547 58.7812C76.0219 58.2047 76.2609 57.6141 76.4859 57.0234C76.8995 55.96 77.6268 55.0474 78.5712 54.4069C79.5156 53.7665 80.6324 53.4284 81.7734 53.4375H83.9953C84.3924 53.4762 84.7932 53.4329 85.1728 53.3102C85.5524 53.1876 85.9028 52.9882 86.2021 52.7244C86.5015 52.4607 86.7434 52.1382 86.9129 51.7771C87.0824 51.4159 87.1759 51.0238 87.1875 50.625Z" fill="#3F88C5"/>
<path d="M50.625 90H39.375C38.6032 90.0018 37.8394 89.8447 37.1309 89.5386C36.4225 89.2325 35.7846 88.7838 35.257 88.2206C34.7294 87.6574 34.3233 86.9916 34.0641 86.2647C33.8048 85.5378 33.6979 84.7653 33.75 83.9953V81.7735C33.7466 81.2109 33.5746 80.6624 33.2563 80.1986C32.9379 79.7348 32.4878 79.3772 31.9641 79.1719C31.3312 78.9188 30.6984 78.6656 30.0656 78.3844C29.5495 78.158 28.9772 78.092 28.4231 78.1948C27.8689 78.2976 27.3584 78.5645 26.9578 78.961L25.1156 80.8031C24.0432 81.8261 22.618 82.3969 21.1359 82.3969C19.6538 82.3969 18.2287 81.8261 17.1562 80.8031L9.19687 72.8438C8.15253 71.7983 7.56152 70.3839 7.55156 68.9063C7.55156 64.0406 13.1766 63.4922 11.6156 59.9766C11.3344 59.3438 11.0812 58.711 10.8281 58.0781C10.6295 57.5465 10.2748 57.0874 9.81048 56.7612C9.34616 56.4349 8.79401 56.2567 8.22656 56.25H5.625C4.13316 56.25 2.70242 55.6574 1.64752 54.6025C0.592632 53.5476 -6.25146e-07 52.1169 -6.25146e-07 50.625V39.375C-0.00176092 38.6033 0.155307 37.8394 0.461431 37.131C0.767556 36.4225 1.21619 35.7847 1.77942 35.257C2.34264 34.7294 3.00842 34.3234 3.73532 34.0641C4.46222 33.8048 5.23469 33.6979 6.00469 33.75H8.22656C8.78908 33.7466 9.33765 33.5746 9.80141 33.2563C10.2652 32.9379 10.6228 32.4878 10.8281 31.9641C11.0812 31.3313 11.3344 30.6984 11.6156 30.0656C11.842 29.5495 11.908 28.9772 11.8052 28.4231C11.7024 27.8689 11.4355 27.3584 11.0391 26.9578L9.19687 25.1156C8.67388 24.5932 8.25899 23.9729 7.97591 23.29C7.69284 22.6071 7.54714 21.8752 7.54714 21.136C7.54714 20.3967 7.69284 19.6648 7.97591 18.9819C8.25899 18.299 8.67388 17.6787 9.19687 17.1563L17.1562 9.19689C18.2287 8.17388 19.6538 7.60314 21.1359 7.60314C22.618 7.60314 24.0432 8.17388 25.1156 9.19689L26.9578 11.0391C27.3584 11.4355 27.8689 11.7024 28.4231 11.8052C28.9772 11.908 29.5495 11.842 30.0656 11.6156C30.6984 11.3344 31.3312 11.0813 31.9641 10.8281C32.4878 10.6228 32.9379 10.2652 33.2563 9.80143C33.5746 9.33767 33.7466 8.78909 33.75 8.22658V5.62501C33.75 4.13317 34.3426 2.70243 35.3975 1.64754C36.4524 0.592647 37.8832 1.46336e-05 39.375 1.46336e-05H50.625C51.3968 -0.00174566 52.1606 0.155322 52.869 0.461447C53.5775 0.767571 54.2154 1.2162 54.743 1.77943C55.2706 2.34266 55.6767 3.00843 55.9359 3.73533C56.1952 4.46223 56.3021 5.23471 56.25 6.0047V8.22658C56.2534 8.78909 56.4254 9.33767 56.7437 9.80143C57.0621 10.2652 57.5122 10.6228 58.0359 10.8281C58.6688 11.0813 59.3016 11.3344 59.9344 11.6156C60.4505 11.842 61.0228 11.908 61.5769 11.8052C62.1311 11.7024 62.6416 11.4355 63.0422 11.0391L64.8844 9.19689C65.9568 8.17388 67.382 7.60314 68.8641 7.60314C70.3462 7.60314 71.7713 8.17388 72.8437 9.19689L80.8031 17.1563C81.8475 18.2017 82.4385 19.6161 82.4484 21.0938C82.4484 25.9594 76.8234 26.5078 78.3844 30.0235C78.6656 30.6563 78.9187 31.2891 79.1719 31.9219C79.3705 32.4535 79.7252 32.9126 80.1895 33.2389C80.6538 33.5651 81.206 33.7433 81.7734 33.75H84.375C85.8668 33.75 87.2976 34.3426 88.3525 35.3975C89.4074 36.4524 90 37.8832 90 39.375V50.625C90.0018 51.3968 89.8447 52.1606 89.5386 52.8691C89.2324 53.5775 88.7838 54.2154 88.2206 54.743C87.6574 55.2706 86.9916 55.6767 86.2647 55.9359C85.5378 56.1952 84.7653 56.3021 83.9953 56.25H81.7734C81.2109 56.2534 80.6623 56.4254 80.1986 56.7438C79.7348 57.0621 79.3772 57.5122 79.1719 58.036C78.9187 58.6688 78.6656 59.3016 78.3844 59.9344C78.158 60.4505 78.092 61.0228 78.1948 61.577C78.2976 62.1311 78.5645 62.6416 78.9609 63.0422L80.8031 64.8844C81.3261 65.4068 81.741 66.0272 82.0241 66.71C82.3072 67.3929 82.4529 68.1249 82.4529 68.8641C82.4529 69.6033 82.3072 70.3353 82.0241 71.0181C81.741 71.701 81.3261 72.3214 80.8031 72.8438L72.8437 80.8031C71.7713 81.8261 70.3462 82.3969 68.8641 82.3969C67.382 82.3969 65.9568 81.8261 64.8844 80.8031L61.6359 77.5547C60.4661 78.1586 59.2643 78.6984 58.0359 79.1719C57.5122 79.3772 57.0621 79.7348 56.7437 80.1986C56.4254 80.6624 56.2534 81.2109 56.25 81.7735V84.375C56.25 85.8669 55.6574 87.2976 54.6025 88.3525C53.5476 89.4074 52.1168 90 50.625 90ZM28.9547 72.5203C30.7118 72.6103 32.4268 73.0907 33.975 73.9266C35.5607 74.5385 36.9247 75.615 37.8882 77.0151C38.8518 78.4153 39.37 80.0738 39.375 81.7735C39.375 83.8688 39.375 84.2766 39.4594 84.4172L50.625 84.375V81.7735C50.6272 80.0714 51.1441 78.4098 52.1078 77.0069C53.0716 75.6039 54.4371 74.5253 56.025 73.9125C57.075 73.5076 58.0988 73.038 59.0906 72.5063C60.149 71.9692 61.35 71.7806 62.522 71.9675C63.694 72.1545 64.7769 72.7073 65.6156 73.5469L68.9063 76.8235L76.8234 68.9063L74.9813 67.0641C73.7746 65.8553 72.9633 64.3088 72.6544 62.629C72.3456 60.9492 72.5538 59.2152 73.2516 57.6563C73.4906 57.1219 73.7016 56.5875 73.9125 56.0531C74.5207 54.4599 75.5975 53.0884 77.0008 52.1194C78.4041 51.1504 80.0681 50.6294 81.7734 50.625C82.6379 50.7228 83.5106 50.7228 84.375 50.625V39.375H81.7734C80.0714 39.3728 78.4098 38.8559 77.0068 37.8922C75.6039 36.9285 74.5252 35.563 73.9125 33.975C73.7016 33.4406 73.4906 32.9063 73.2516 32.3719C72.5569 30.8147 72.3504 29.0836 72.6592 27.4067C72.968 25.7298 73.7775 24.1858 74.9813 22.9781L76.8234 21.0938L68.9063 13.1766L67.0641 15.0188C65.8553 16.2254 64.3087 17.0367 62.6289 17.3456C60.9492 17.6544 59.2152 17.4462 57.6563 16.7485C57.1219 16.5094 56.5875 16.2985 56.0531 16.0875C54.4599 15.4793 53.0884 14.4025 52.1194 12.9992C51.1504 11.5959 50.6294 9.93193 50.625 8.22658C50.625 6.13126 50.625 5.72345 50.5406 5.58283L39.375 5.62501V8.22658C39.3728 9.92864 38.8559 11.5902 37.8922 12.9932C36.9284 14.3961 35.5629 15.4748 33.975 16.0875C33.4406 16.2985 32.9062 16.5094 32.3719 16.7485C30.8147 17.4431 29.0836 17.6496 27.4067 17.3408C25.7298 17.0321 24.1858 16.2225 22.9781 15.0188L21.0937 13.1766L13.1766 21.0938L15.0187 22.936C16.2254 24.1447 17.0367 25.6913 17.3456 27.3711C17.6544 29.0509 17.4462 30.7848 16.7484 32.3438C16.5094 32.8781 16.2984 33.4125 16.0875 33.9469C15.4793 35.5401 14.4025 36.9116 12.9992 37.8806C11.5959 38.8496 9.93191 39.3706 8.22656 39.375C6.13125 39.375 5.72344 39.375 5.58281 39.4594L5.625 50.625H8.22656C9.92862 50.6272 11.5902 51.1441 12.9932 52.1078C14.3961 53.0716 15.4748 54.4371 16.0875 56.025C16.2984 56.5594 16.5094 57.0938 16.7484 57.6281C17.4431 59.1853 17.6496 60.9164 17.3408 62.5933C17.032 64.2702 16.2225 65.8142 15.0187 67.0219L13.1766 68.9063L21.0937 76.8235C23.2172 74.7422 24.9891 72.5203 28.9547 72.5203Z" fill="#1C2541"/>
<g clip-path="url(#clip1_4_181)">
<path d="M70.7813 38.5547C70.7813 33.7684 68.8799 29.1781 65.4954 25.7936C62.111 22.4092 57.5207 20.5078 52.7344 20.5078L34.6875 20.5078L34.6875 33.3984L52.7344 33.3984C54.1019 33.3984 55.4134 33.9417 56.3804 34.9087C57.3474 35.8757 57.8906 37.1872 57.8906 38.5547C57.8906 39.9222 57.3474 41.2337 56.3804 42.2007C55.4134 43.1677 54.1019 43.7109 52.7344 43.7109L48.2227 43.7109C44.634 43.7143 41.1932 45.1415 38.6556 47.6791C36.118 50.2167 34.6909 53.6574 34.6875 57.2461L34.6875 65.625L47.5781 65.625L47.5781 57.2461C47.5781 57.0752 47.646 56.9112 47.7669 56.7903C47.8878 56.6695 48.0517 56.6016 48.2227 56.6016L52.7344 56.6016C55.1043 56.6016 57.4511 56.1348 59.6406 55.2278C61.8302 54.3209 63.8196 52.9916 65.4954 51.3158C67.1713 49.6399 68.5006 47.6505 69.4075 45.4609C70.3145 43.2714 70.7813 40.9246 70.7813 38.5547V38.5547Z" stroke="#1C2541" stroke-width="2" stroke-linecap="round" stroke-linejoin="round"/>
<path d="M33.3984 70.7813L33.3984 65.625L48.8672 65.625L48.8672 70.7813L33.3984 70.7813Z" stroke="#1C2541" stroke-width="2" stroke-linecap="round" stroke-linejoin="round"/>
<path d="M29.5312 34.6875L29.5312 19.2188L34.6875 19.2188L34.6875 34.6875L29.5312 34.6875Z" stroke="#1C2541" stroke-width="2" stroke-linecap="round" stroke-linejoin="round"/>
<path d="M-787.734 702.422L-787.734 -174.141L88.8282 -174.141L88.8282 702.422L-787.734 702.422Z" stroke="#1C2541" stroke-width="2" stroke-linecap="round" stroke-linejoin="round"/>
</g>
</g>
<defs>
<clipPath id="clip0_4_181">
<rect width="90" height="90" fill="white"/>
</clipPath>
<clipPath id="clip1_4_181">
<rect width="61.875" height="61.875" fill="white" transform="matrix(-4.37114e-08 1 1 4.37114e-08 14.0625 14.0625)"/>
</clipPath>
</defs>
</svg>
