<svg width="36" height="36" viewBox="0 0 36 36" fill="none" xmlns="http://www.w3.org/2000/svg">
<path d="M17.8125 0.3125C8.14844 0.3125 0.3125 8.14844 0.3125 17.8125C0.3125 27.4766 8.14844 35.3125 17.8125 35.3125C27.4766 35.3125 35.3125 27.4766 35.3125 17.8125C35.3125 8.14844 27.4766 0.3125 17.8125 0.3125ZM26.2227 13.5039C26.2344 13.6875 26.2344 13.8789 26.2344 14.0664C26.2344 19.8008 21.8672 26.4062 13.8867 26.4062C11.4258 26.4062 9.14453 25.6914 7.22266 24.4609C7.57422 24.5 7.91016 24.5156 8.26953 24.5156C10.3008 24.5156 12.168 23.8281 13.6563 22.6641C11.75 22.625 10.1484 21.375 9.60156 19.6563C10.2695 19.7539 10.8711 19.7539 11.5586 19.5781C10.5771 19.3787 9.69482 18.8456 9.06178 18.0695C8.42874 17.2933 8.08393 16.3219 8.08594 15.3203V15.2656C8.66016 15.5898 9.33594 15.7891 10.043 15.8164C9.4486 15.4203 8.96116 14.8836 8.62387 14.254C8.28658 13.6244 8.10986 12.9213 8.10938 12.207C8.10938 11.3984 8.32031 10.6602 8.69922 10.0195C9.78868 11.3607 11.1482 12.4576 12.6893 13.2389C14.2305 14.0203 15.9188 14.4686 17.6445 14.5547C17.0313 11.6055 19.2344 9.21875 21.8828 9.21875C23.1328 9.21875 24.2578 9.74219 25.0508 10.5859C26.0312 10.4023 26.9687 10.0352 27.8047 9.54297C27.4805 10.5469 26.8008 11.3945 25.8984 11.9297C26.7734 11.8359 27.6172 11.5938 28.3984 11.2539C27.8086 12.1211 27.0703 12.8906 26.2227 13.5039V13.5039Z" fill="#3F88C5"/>
</svg>
